# xmcd
#
# Track frame offsets:
#	150
#	18570
#	32212
#	46042
#	59235
#	72460
#	89145
#	105155
#	128065
#	141595
#	158172
#	174967
#
# Disc length: 2498 seconds
#
# Revision: 0
# Processed by: cddbd v1.5.2PL0 Copyright (c) Steve Scherf et al.
# Submitted via: EasyCDDAExtractor 16.0.6.1
#
DISCID=aa09c00c
DTITLE=Νταλάρας Γιώργος - Ρεμπέτικα της Κατοχής [Νταλάρας Γ.]
DYEAR=1980
DGENRE=Ρεμπέτικη
TTITLE0=Νταλάρας Γιώργος - Σαλταδόρος [Μ. Γενίτσαρη]
TTITLE1=Νταλάρας Γιώργος - Επιδρομή στον Πειραιά [Μ. Γενίτσαρη]
TTITLE2=Νταλάρας Γιώργος-Γλυκερία-Κοντογιάννης Δημ. - Νά 'ναι γλυκό το βόλι [Μ
TTITLE2=παγιαντέρα]
TTITLE3=Νταλάρας Γιώργος - Μαυραγορίτες [Μ. Γενίτσαρη]
TTITLE4=Νταλάρας Γιώργος - Χαϊδάρι [Μ. και Σ. Βαμβακάρη]
TTITLE5=Νταλάρας Γιώργος - Ένας λεβέντης έσβησε [Ν. Μάθεση-Μ. Χιώτη-Μ. Γενίτσα
TTITLE5=ρη]
TTITLE6=Νταλάρας Γιώργος-Γλυκερία-Κοντογιάννης Δημ. - Κάνε λιγάκι υπομονή [Β. 
TTITLE6=Τσιτσάνη]
TTITLE7=Νταλάρας Γιώργος - Στέλιος Καρδάρας [Μ. Γενίτσαρη]
TTITLE8=Νταλάρας Γιώργος - Αδερφός τον αδερφό [Οδ. Μοσχονά]
TTITLE9=Νταλάρας Γιώργος - Χτίζουν και γκρεμίζουν κάστρα [Β. Τσιτσάνη]
TTITLE10=Νταλάρας Γιώργος-Γλυκερία-Κοντογιάννης Δημ. - Κάποια μάννα αναστενάζε
TTITLE10=ι [Μ. Μπακάλη-Β. Τσιτσάνη]
TTITLE11=Νταλάρας Γιώργος-Γλυκερία-Κοντογιάννης Δημ. - Της κοινωνίας η διαφορά
TTITLE11=[Β. Τσιτσάνη]
EXTD=
EXTT0=
EXTT1=
EXTT2=
EXTT3=
EXTT4=
EXTT5=
EXTT6=
EXTT7=
EXTT8=
EXTT9=
EXTT10=
EXTT11=
PLAYORDER=
